<svg width="100" height="100" viewBox="0 0 100 100" fill="none" xmlns="http://www.w3.org/2000/svg">
<path d="M33.3363 49.9995C33.3363 46.7032 34.3138 43.4809 36.1454 40.7401C37.9769 37.9993 40.5801 35.8631 43.6258 34.6017C46.6715 33.3402 50.0229 33.0102 53.2562 33.6532C56.4895 34.2963 59.4595 35.8837 61.7906 38.2145C64.1217 40.5454 65.7091 43.5151 66.3523 46.748C66.9954 49.981 66.6653 53.3321 65.4038 56.3775C64.1422 59.4229 62.0058 62.0259 59.2647 63.8572C56.5237 65.6885 53.3011 66.666 50.0044 66.666C45.5837 66.666 41.3441 64.9101 38.2183 61.7845C35.0924 58.6589 33.3363 54.4197 33.3363 49.9995ZM24.3247 49.9995C24.3247 55.0773 25.8305 60.041 28.6518 64.2631C31.4731 68.4851 35.4831 71.7758 40.1747 73.7191C44.8664 75.6625 50.029 76.1711 55.0097 75.1807C59.9904 74.1902 64.5656 71.7453 68.1567 68.155C71.7477 64.5647 74.1934 59.9902 75.1845 55.0101C76.1756 50.03 75.6675 44.8678 73.7246 40.1764C71.7816 35.485 68.491 31.4751 64.2689 28.6536C60.0467 25.8321 55.0827 24.3258 50.0044 24.3253C46.6325 24.3251 43.2935 24.9891 40.1782 26.2793C37.0629 27.5695 34.2322 29.4607 31.8479 31.8448C29.4636 34.2289 27.5722 37.0592 26.2819 40.1742C24.9916 43.2892 24.3275 46.6279 24.3276 49.9995H24.3247ZM70.6925 23.3076C70.6921 24.4943 71.0437 25.6544 71.7027 26.6413C72.3617 27.6282 73.2986 28.3976 74.3949 28.852C75.4912 29.3065 76.6977 29.4257 77.8618 29.1946C79.0258 28.9635 80.0952 28.3924 80.9347 27.5536C81.7741 26.7147 82.346 25.6458 82.5779 24.482C82.8098 23.3182 82.6914 22.1118 82.2376 21.0153C81.7838 19.9188 81.015 18.9815 80.0284 18.3219C79.0418 17.6623 77.8818 17.31 76.695 17.3096C75.1041 17.3104 73.5786 17.9425 72.4535 19.0671C71.3284 20.1918 70.6958 21.7169 70.6945 23.3076H70.6925ZM29.8066 90.6981C26.6354 90.6619 23.4942 90.0802 20.5204 88.9785C18.3486 88.1758 16.3835 86.898 14.769 85.2384C13.1067 83.6276 11.8283 81.6634 11.0284 79.4914C9.9248 76.5183 9.34171 73.3773 9.30474 70.2062C9.06256 64.9356 9.0106 63.3523 9.0106 50.0005C9.0106 36.6487 9.06256 35.0693 9.30474 29.7948C9.34458 26.6244 9.92621 23.4841 11.0245 20.5096C11.8273 18.3379 13.1053 16.3731 14.765 14.7587C16.3768 13.0957 18.3426 11.8173 20.5165 11.0185C23.4913 9.91556 26.634 9.33352 29.8066 9.29795C35.0776 9.05579 36.6611 9.00383 50.0044 9.00383C63.3477 9.00383 64.9371 9.05579 70.2121 9.29795C73.3828 9.33776 76.5235 9.91934 79.4982 11.0175C81.6708 11.8188 83.6362 13.0968 85.2497 14.7577C86.9107 16.371 88.1889 18.3362 88.9902 20.5086C90.0925 23.482 90.6742 26.623 90.71 29.7938C90.9521 35.0683 91.0041 36.6477 91.0041 49.9995C91.0041 63.3513 90.9561 64.9307 90.71 70.2052C90.6717 73.3758 90.09 76.5164 88.9902 79.4904C88.158 81.6467 86.8835 83.6048 85.2487 85.2388C83.6139 86.8728 81.655 88.1464 79.4982 88.9776C76.5246 90.0797 73.3832 90.6614 70.2121 90.6972C64.941 90.9393 63.3576 90.9913 50.0044 90.9913C36.6513 90.9913 35.0717 90.9432 29.8066 90.6972V90.6981ZM29.3889 0.302938C25.2408 0.384992 21.1368 1.17032 17.2515 2.62546C13.9146 3.881 10.8915 5.8489 8.3929 8.39208C5.84686 10.8881 3.87807 13.9111 2.62474 17.2488C1.1698 21.1341 0.384738 25.2381 0.302968 29.386C0.0568678 34.7173 0 36.4212 0 49.9995C0 63.5778 0.0568678 65.2817 0.302968 70.613C0.385125 74.7607 1.17052 78.8643 2.62572 82.7492C3.879 86.087 5.84741 89.1103 8.3929 91.6069C10.8923 94.1489 13.9147 96.1169 17.2505 97.3745C21.1359 98.8291 25.2399 99.6144 29.3879 99.6971C34.7227 99.9392 36.4238 100 50.0034 100C63.5831 100 65.2871 99.9431 70.619 99.6971C74.767 99.6149 78.871 98.8296 82.7563 97.3745C86.0788 96.0901 89.0962 94.1257 91.6151 91.6071C94.1339 89.0885 96.0986 86.0714 97.3831 82.7492C98.8402 78.8648 99.6257 74.7609 99.7059 70.613C99.948 65.2778 100 63.5778 100 49.9995C100 36.4212 99.9431 34.7173 99.7059 29.386C99.6239 25.2383 98.8385 21.1347 97.3831 17.2498C96.1256 13.9141 94.1578 10.8917 91.6159 8.39208C89.1201 5.84767 86.0984 3.87925 82.7622 2.62448C78.8769 1.16859 74.7723 0.383563 70.6239 0.302938C65.293 0.0607837 63.588 0 50.0044 0C36.4209 0 34.7188 0.0568622 29.3849 0.302938" fill="#36454F"/>
</svg>
