<svg width="524" height="233" viewBox="0 0 524 233" fill="none" xmlns="http://www.w3.org/2000/svg">
<path d="M5 233V5H80V185.998" stroke="black" stroke-width="10" stroke-linejoin="round"/>
<path d="M524 186.455H31V118L131 65L240 118" stroke="black" stroke-width="10" stroke-linejoin="round"/>
<path d="M117.064 142.72V160.96C117.064 165.376 116.84 168.576 116.392 170.56C115.944 172.544 114.92 173.968 113.32 174.832C111.72 175.696 109.096 176.128 105.448 176.128C101.8 176.128 99.176 175.696 97.576 174.832C95.976 173.968 94.936 172.544 94.456 170.56C94.008 168.544 93.784 165.344 93.784 160.96V142.72H101.272V162.928C101.272 165.264 101.336 166.88 101.464 167.776C101.624 168.672 101.976 169.264 102.52 169.552C103.064 169.84 104.04 169.984 105.448 169.984C106.856 169.984 107.816 169.84 108.328 169.552C108.872 169.264 109.208 168.688 109.336 167.824C109.496 166.928 109.576 165.296 109.576 162.928V142.72H117.064ZM122.947 175.744V142.72H130.387V169.312H141.331V175.744H122.947ZM150.634 175.744V149.152H142.858V142.72H165.946V149.152H158.122V175.744H150.634ZM169.587 175.744V142.72H177.075V175.744H169.587ZM208.527 175.744V152.896H208.191L202.191 175.744H196.335L190.383 152.896H190.047V175.744H183.039V142.72H193.743L199.263 163.888H199.599L205.119 142.72H215.727V175.744H208.527ZM233.376 176.128C229.376 176.128 226.512 175.648 224.784 174.688C223.088 173.696 222.016 172.128 221.568 169.984C221.152 167.808 220.944 164.224 220.944 159.232C220.944 154.24 221.152 150.672 221.568 148.528C222.016 146.352 223.088 144.784 224.784 143.824C226.512 142.832 229.376 142.336 233.376 142.336C237.408 142.336 240.272 142.832 241.968 143.824C243.696 144.784 244.768 146.336 245.184 148.48C245.6 150.624 245.807 154.208 245.807 159.232C245.807 164.256 245.6 167.84 245.184 169.984C244.768 172.128 243.696 173.696 241.968 174.688C240.272 175.648 237.408 176.128 233.376 176.128ZM233.376 169.936C235.104 169.936 236.256 169.76 236.832 169.408C237.44 169.056 237.824 168.224 237.984 166.912C238.144 165.6 238.224 163.04 238.224 159.232C238.224 155.424 238.144 152.864 237.984 151.552C237.824 150.24 237.44 149.408 236.832 149.056C236.256 148.704 235.104 148.528 233.376 148.528C231.648 148.528 230.48 148.704 229.872 149.056C229.296 149.408 228.928 150.24 228.768 151.552C228.608 152.864 228.528 155.424 228.528 159.232C228.528 163.04 228.608 165.6 228.768 166.912C228.928 168.224 229.296 169.056 229.872 169.408C230.48 169.76 231.648 169.936 233.376 169.936ZM277.683 175.744L273.843 164.176H269.043V175.744H261.603V142.72H275.187C277.907 142.72 279.955 143.136 281.331 143.968C282.707 144.768 283.619 145.92 284.067 147.424C284.547 148.928 284.787 150.928 284.787 153.424C284.787 155.76 284.531 157.76 284.019 159.424C283.507 161.056 282.467 162.256 280.899 163.024L285.507 175.744H277.683ZM272.787 158.032C274.195 158.032 275.187 157.92 275.763 157.696C276.371 157.472 276.771 157.072 276.963 156.496C277.155 155.888 277.251 154.88 277.251 153.472C277.251 152.032 277.155 151.024 276.963 150.448C276.803 149.84 276.419 149.44 275.811 149.248C275.235 149.024 274.243 148.912 272.835 148.912H269.043V158.032H272.787ZM290.01 175.744V142.72H309.882V148.912H297.45V155.968H308.106V162.16H297.45V169.552H309.882V175.744H290.01ZM332.989 175.744L331.309 169.12H321.565L319.981 175.744H312.493L321.325 142.72H331.789L340.573 175.744H332.989ZM326.557 149.44H326.269L323.053 162.976H329.821L326.557 149.44ZM344.056 175.744V142.72H351.496V169.312H362.44V175.744H344.056ZM376.869 175.744V142.72H396.741V148.912H384.309V155.968H394.965V162.16H384.309V169.552H396.741V175.744H376.869ZM412.217 176.128C408.217 176.128 404.681 175.856 401.609 175.312V169.456C405.577 169.776 408.393 169.936 410.057 169.936C411.369 169.936 412.393 169.872 413.129 169.744C413.865 169.616 414.393 169.392 414.713 169.072C415.001 168.784 415.177 168.432 415.241 168.016C415.337 167.6 415.385 167.008 415.385 166.24C415.385 165.216 415.321 164.496 415.193 164.08C415.065 163.632 414.793 163.312 414.377 163.12C413.993 162.928 413.321 162.752 412.361 162.592L407.033 161.824C404.601 161.472 402.953 160.528 402.089 158.992C401.225 157.456 400.793 155.248 400.793 152.368C400.793 149.584 401.257 147.456 402.185 145.984C403.113 144.512 404.377 143.536 405.977 143.056C407.577 142.576 409.609 142.336 412.073 142.336C415.113 142.336 418.233 142.656 421.433 143.296V149.056C418.553 148.704 415.993 148.528 413.753 148.528C411.385 148.528 409.865 148.752 409.193 149.2C408.809 149.424 408.569 149.744 408.473 150.16C408.377 150.544 408.329 151.152 408.329 151.984C408.329 152.912 408.377 153.568 408.473 153.952C408.569 154.336 408.777 154.624 409.097 154.816C409.449 154.976 410.041 155.12 410.873 155.248L416.585 156.064C417.865 156.256 418.921 156.576 419.753 157.024C420.617 157.472 421.321 158.24 421.865 159.328C422.537 160.736 422.873 162.752 422.873 165.376C422.873 168.448 422.441 170.768 421.577 172.336C420.713 173.904 419.529 174.928 418.025 175.408C416.553 175.888 414.617 176.128 412.217 176.128ZM433.15 175.744V149.152H425.374V142.72H448.462V149.152H440.638V175.744H433.15ZM468.083 175.744L466.403 169.12H456.659L455.075 175.744H447.587L456.419 142.72H466.883L475.667 175.744H468.083ZM461.651 149.44H461.363L458.147 162.976H464.915L461.651 149.44ZM482.603 175.744V149.152H474.827V142.72H497.915V149.152H490.091V175.744H482.603ZM501.603 175.744V142.72H521.475V148.912H509.043V155.968H519.699V162.16H509.043V169.552H521.475V175.744H501.603Z" fill="black"/>
</svg>
