<svg width="524" height="233" viewBox="0 0 524 233" fill="none" xmlns="http://www.w3.org/2000/svg">
<path d="M5 233V5H80V185.998" stroke="#36454F" stroke-width="10" stroke-linejoin="round"/>
<path d="M524 190.455H31V115" stroke="#36454F" stroke-width="10" stroke-linejoin="round"/>
<path d="M24 122L130.5 67L233 122" stroke="#8F1402" stroke-width="10" stroke-linecap="square" stroke-linejoin="round"/>
<path d="M117.064 145.72V163.96C117.064 168.376 116.84 171.576 116.392 173.56C115.944 175.544 114.92 176.968 113.32 177.832C111.72 178.696 109.096 179.128 105.448 179.128C101.8 179.128 99.176 178.696 97.576 177.832C95.976 176.968 94.936 175.544 94.456 173.56C94.008 171.544 93.784 168.344 93.784 163.96V145.72H101.272V165.928C101.272 168.264 101.336 169.88 101.464 170.776C101.624 171.672 101.976 172.264 102.52 172.552C103.064 172.84 104.04 172.984 105.448 172.984C106.856 172.984 107.816 172.84 108.328 172.552C108.872 172.264 109.208 171.688 109.336 170.824C109.496 169.928 109.576 168.296 109.576 165.928V145.72H117.064ZM122.947 178.744V145.72H130.387V172.312H141.331V178.744H122.947ZM150.634 178.744V152.152H142.858V145.72H165.946V152.152H158.122V178.744H150.634ZM169.587 178.744V145.72H177.075V178.744H169.587ZM208.527 178.744V155.896H208.191L202.191 178.744H196.335L190.383 155.896H190.047V178.744H183.039V145.72H193.743L199.263 166.888H199.599L205.119 145.72H215.727V178.744H208.527ZM233.376 179.128C229.376 179.128 226.512 178.648 224.784 177.688C223.088 176.696 222.016 175.128 221.568 172.984C221.152 170.808 220.944 167.224 220.944 162.232C220.944 157.24 221.152 153.672 221.568 151.528C222.016 149.352 223.088 147.784 224.784 146.824C226.512 145.832 229.376 145.336 233.376 145.336C237.408 145.336 240.272 145.832 241.968 146.824C243.696 147.784 244.768 149.336 245.184 151.48C245.6 153.624 245.807 157.208 245.807 162.232C245.807 167.256 245.6 170.84 245.184 172.984C244.768 175.128 243.696 176.696 241.968 177.688C240.272 178.648 237.408 179.128 233.376 179.128ZM233.376 172.936C235.104 172.936 236.256 172.76 236.832 172.408C237.44 172.056 237.824 171.224 237.984 169.912C238.144 168.6 238.224 166.04 238.224 162.232C238.224 158.424 238.144 155.864 237.984 154.552C237.824 153.24 237.44 152.408 236.832 152.056C236.256 151.704 235.104 151.528 233.376 151.528C231.648 151.528 230.48 151.704 229.872 152.056C229.296 152.408 228.928 153.24 228.768 154.552C228.608 155.864 228.528 158.424 228.528 162.232C228.528 166.04 228.608 168.6 228.768 169.912C228.928 171.224 229.296 172.056 229.872 172.408C230.48 172.76 231.648 172.936 233.376 172.936ZM277.683 178.744L273.843 167.176H269.043V178.744H261.603V145.72H275.187C277.907 145.72 279.955 146.136 281.331 146.968C282.707 147.768 283.619 148.92 284.067 150.424C284.547 151.928 284.787 153.928 284.787 156.424C284.787 158.76 284.531 160.76 284.019 162.424C283.507 164.056 282.467 165.256 280.899 166.024L285.507 178.744H277.683ZM272.787 161.032C274.195 161.032 275.187 160.92 275.763 160.696C276.371 160.472 276.771 160.072 276.963 159.496C277.155 158.888 277.251 157.88 277.251 156.472C277.251 155.032 277.155 154.024 276.963 153.448C276.803 152.84 276.419 152.44 275.811 152.248C275.235 152.024 274.243 151.912 272.835 151.912H269.043V161.032H272.787ZM290.01 178.744V145.72H309.882V151.912H297.45V158.968H308.106V165.16H297.45V172.552H309.882V178.744H290.01ZM332.989 178.744L331.309 172.12H321.565L319.981 178.744H312.493L321.325 145.72H331.789L340.573 178.744H332.989ZM326.557 152.44H326.269L323.053 165.976H329.821L326.557 152.44ZM344.056 178.744V145.72H351.496V172.312H362.44V178.744H344.056ZM376.869 178.744V145.72H396.741V151.912H384.309V158.968H394.965V165.16H384.309V172.552H396.741V178.744H376.869ZM412.217 179.128C408.217 179.128 404.681 178.856 401.609 178.312V172.456C405.577 172.776 408.393 172.936 410.057 172.936C411.369 172.936 412.393 172.872 413.129 172.744C413.865 172.616 414.393 172.392 414.713 172.072C415.001 171.784 415.177 171.432 415.241 171.016C415.337 170.6 415.385 170.008 415.385 169.24C415.385 168.216 415.321 167.496 415.193 167.08C415.065 166.632 414.793 166.312 414.377 166.12C413.993 165.928 413.321 165.752 412.361 165.592L407.033 164.824C404.601 164.472 402.953 163.528 402.089 161.992C401.225 160.456 400.793 158.248 400.793 155.368C400.793 152.584 401.257 150.456 402.185 148.984C403.113 147.512 404.377 146.536 405.977 146.056C407.577 145.576 409.609 145.336 412.073 145.336C415.113 145.336 418.233 145.656 421.433 146.296V152.056C418.553 151.704 415.993 151.528 413.753 151.528C411.385 151.528 409.865 151.752 409.193 152.2C408.809 152.424 408.569 152.744 408.473 153.16C408.377 153.544 408.329 154.152 408.329 154.984C408.329 155.912 408.377 156.568 408.473 156.952C408.569 157.336 408.777 157.624 409.097 157.816C409.449 157.976 410.041 158.12 410.873 158.248L416.585 159.064C417.865 159.256 418.921 159.576 419.753 160.024C420.617 160.472 421.321 161.24 421.865 162.328C422.537 163.736 422.873 165.752 422.873 168.376C422.873 171.448 422.441 173.768 421.577 175.336C420.713 176.904 419.529 177.928 418.025 178.408C416.553 178.888 414.617 179.128 412.217 179.128ZM433.15 178.744V152.152H425.374V145.72H448.462V152.152H440.638V178.744H433.15ZM468.083 178.744L466.403 172.12H456.659L455.075 178.744H447.587L456.419 145.72H466.883L475.667 178.744H468.083ZM461.651 152.44H461.363L458.147 165.976H464.915L461.651 152.44ZM482.603 178.744V152.152H474.827V145.72H497.915V152.152H490.091V178.744H482.603ZM501.603 178.744V145.72H521.475V151.912H509.043V158.968H519.699V165.16H509.043V172.552H521.475V178.744H501.603Z" fill="#36454F"/>
</svg>
